<svg width="135" height="48" viewBox="0 0 135 48" fill="none" xmlns="http://www.w3.org/2000/svg">
<g clip-path="url(#clip0_2_1617)">
<path d="M54.9587 37.592L47.8338 12.2462H52.7522L57.3009 30.8718H57.5352L62.392 12.2462H66.8667L71.7358 30.8843H71.9577L76.5064 12.2462H81.4249L74.2999 37.592H69.7881L64.7341 19.8078H64.5369L59.4704 37.592H54.9587ZM88.5141 26.4537V37.592H84.0517V12.2462H88.4154V21.8127H88.6373C89.0811 20.7402 89.7673 19.8945 90.6959 19.2757C91.6328 18.6487 92.8244 18.3351 94.2707 18.3351C95.5857 18.3351 96.7321 18.6115 97.7099 19.1643C98.6879 19.7171 99.4441 20.5256 99.9782 21.59C100.521 22.6543 100.792 23.9538 100.792 25.4884V37.592H96.3294V26.1814C96.3294 24.9026 96.0007 23.9084 95.3432 23.1988C94.694 22.481 93.7818 22.1222 92.6066 22.1222C91.8176 22.1222 91.111 22.2954 90.4864 22.6419C89.87 22.9802 89.3851 23.4711 89.0317 24.1146C88.6866 24.7582 88.5141 25.5379 88.5141 26.4537ZM104.993 37.592V18.5826H109.456V37.592H104.993ZM107.237 15.8847C106.53 15.8847 105.922 15.6495 105.412 15.1793C104.903 14.7008 104.648 14.1274 104.648 13.459C104.648 12.7825 104.903 12.2091 105.412 11.7388C105.922 11.2603 106.53 11.021 107.237 11.021C107.952 11.021 108.56 11.2603 109.061 11.7388C109.571 12.2091 109.826 12.7825 109.826 13.459C109.826 14.1274 109.571 14.7008 109.061 15.1793C108.56 15.6495 107.952 15.8847 107.237 15.8847ZM113.697 37.592V18.5826H118.024V21.7509H118.221C118.567 20.6535 119.158 19.8078 119.996 19.2138C120.842 18.6115 121.808 18.3104 122.894 18.3104C123.14 18.3104 123.415 18.3227 123.719 18.3475C124.031 18.364 124.29 18.3929 124.496 18.4341V22.5553C124.307 22.4893 124.007 22.4315 123.596 22.382C123.193 22.3243 122.803 22.2954 122.424 22.2954C121.611 22.2954 120.879 22.4728 120.231 22.8275C119.589 23.1741 119.084 23.6568 118.714 24.2755C118.345 24.8943 118.16 25.608 118.16 26.4166V37.592H113.697ZM131.576 12.2462V37.592H127.113V12.2462H131.576Z" fill="#2D2D2D"/>
<path fill-rule="evenodd" clip-rule="evenodd" d="M23.6005 7.14991C21.2227 6.16107 18.65 5.73466 16.0818 5.90366C13.5135 6.07265 11.0184 6.83254 8.78942 8.12453L6.54049 9.4281L3.94364 4.91242L6.19257 3.60885C9.11145 1.91696 12.3788 0.921866 15.7421 0.700556C19.1053 0.479246 22.4741 1.03765 25.5881 2.33257C28.7019 3.62748 31.4773 5.62421 33.6996 8.16827C35.9219 10.7123 37.5314 13.7356 38.4038 17.0041C39.2761 20.2725 39.3878 23.6987 38.7303 27.0175C38.0727 30.3362 36.6636 33.4586 34.6118 36.1431C32.56 38.8277 29.9206 41.0024 26.8978 42.4989C23.8749 43.9956 19.976 44.7741 17.1792 44.7741C14.3825 44.7741 12.7496 44.3529 10.6049 43.4611C8.52069 42.5943 6.62688 41.3239 5.03165 39.7224C3.43641 38.1208 2.17102 36.2195 1.30768 34.127C0.44435 32.0345 0 29.7918 0 27.5268C0 25.2618 0.444351 23.0192 1.30768 20.9266C2.17102 18.8341 3.43641 16.9328 5.03165 15.3312C6.62688 13.7297 8.52069 12.4593 10.605 11.5925C12.6892 10.7258 14.9232 10.2797 17.1791 10.2797C19.4351 10.2797 21.669 10.7258 23.7533 11.5925C25.8376 12.4593 27.7314 13.7297 29.3266 15.3312C30.9219 16.9328 32.1873 18.8341 33.0505 20.9266C33.4219 21.8267 33.7157 22.7546 33.9301 23.7C34.0349 21.9052 33.8531 20.0999 33.387 18.3536C32.721 15.8577 31.4918 13.549 29.7948 11.6063C28.0977 9.66353 25.9784 8.13876 23.6005 7.14991ZM6.80666 33.5558C7.10124 27.9501 11.7219 23.4958 17.3789 23.4958C22.8172 23.4958 27.2978 27.6125 27.8978 32.9111C28.0249 32.6559 28.1431 32.396 28.2522 32.1316C28.8545 30.6718 29.1646 29.107 29.1646 27.5268C29.1646 25.9466 28.8545 24.382 28.2522 22.922C27.6499 21.4622 26.767 20.1357 25.6541 19.0183C24.5412 17.9009 23.2199 17.0145 21.7657 16.4099C20.3116 15.8051 18.753 15.4939 17.1791 15.4939C15.6051 15.4939 14.0466 15.8051 12.5925 16.4099C11.1384 17.0145 9.81709 17.9009 8.70414 19.0183C7.59119 20.1357 6.70835 21.4622 6.10602 22.922C5.5037 24.382 5.19369 25.9466 5.19369 27.5268C5.19369 29.107 5.5037 30.6718 6.10602 32.1316C6.30851 32.6224 6.54269 33.0981 6.80666 33.5558ZM22.7723 34.125C22.7723 37.1155 20.3576 39.5398 17.3789 39.5398C14.4001 39.5398 11.9854 37.1155 11.9854 34.125C11.9854 31.1344 14.4001 28.7101 17.3789 28.7101C20.3576 28.7101 22.7723 31.1344 22.7723 34.125Z" fill="#006B99"/>
</g>
<defs>
<clipPath id="clip0_2_1617">
<rect width="135" height="47" fill="white" transform="translate(0 0.015625)"/>
</clipPath>
</defs>
</svg>
