<svg width="22" height="23" viewBox="0 0 22 23" fill="none" xmlns="http://www.w3.org/2000/svg">
<g clip-path="url(#clip0_2_1673)">
<path d="M22 11.0156C22 4.94051 17.0751 0.015625 11 0.015625C4.92488 0.015625 0 4.94051 0 11.0156C0 16.506 4.02252 21.0568 9.28125 21.882V14.1953H6.48826V11.0156H9.28125V8.59219C9.28125 5.83531 10.9235 4.3125 13.4361 4.3125C14.6393 4.3125 15.8984 4.52734 15.8984 4.52734V7.23438H14.5114C13.145 7.23438 12.7188 8.08238 12.7188 8.95312V11.0156H15.7695L15.2818 14.1953H12.7188V21.882C17.9775 21.0568 22 16.506 22 11.0156Z" fill="black"/>
</g>
<defs>
<clipPath id="clip0_2_1673">
<rect width="22" height="22" fill="white" transform="translate(0 0.015625)"/>
</clipPath>
</defs>
</svg>
